<?xml version="1.0" standalone="no"?><svg xmlns="http://www.w3.org/2000/svg" viewBox="0 0 1440 320"><path fill="#f3f4f5" fill-opacity="1" d="M0,96L6.2,112C12.3,128,25,160,37,149.3C49.2,139,62,85,74,85.3C86.2,85,98,139,111,176C123.1,213,135,235,148,245.3C160,256,172,256,185,224C196.9,192,209,128,222,128C233.8,128,246,192,258,197.3C270.8,203,283,149,295,144C307.7,139,320,181,332,218.7C344.6,256,357,288,369,282.7C381.5,277,394,235,406,186.7C418.5,139,431,85,443,64C455.4,43,468,53,480,53.3C492.3,53,505,43,517,74.7C529.2,107,542,181,554,202.7C566.2,224,578,192,591,154.7C603.1,117,615,75,628,53.3C640,32,652,32,665,53.3C676.9,75,689,117,702,133.3C713.8,149,726,139,738,160C750.8,181,763,235,775,245.3C787.7,256,800,224,812,192C824.6,160,837,128,849,122.7C861.5,117,874,139,886,133.3C898.5,128,911,96,923,74.7C935.4,53,948,43,960,58.7C972.3,75,985,117,997,160C1009.2,203,1022,245,1034,266.7C1046.2,288,1058,288,1071,240C1083.1,192,1095,96,1108,48C1120,0,1132,0,1145,32C1156.9,64,1169,128,1182,170.7C1193.8,213,1206,235,1218,229.3C1230.8,224,1243,192,1255,181.3C1267.7,171,1280,181,1292,176C1304.6,171,1317,149,1329,133.3C1341.5,117,1354,107,1366,85.3C1378.5,64,1391,32,1403,32C1415.4,32,1428,64,1434,80L1440,96L1440,320L1433.8,320C1427.7,320,1415,320,1403,320C1390.8,320,1378,320,1366,320C1353.8,320,1342,320,1329,320C1316.9,320,1305,320,1292,320C1280,320,1268,320,1255,320C1243.1,320,1231,320,1218,320C1206.2,320,1194,320,1182,320C1169.2,320,1157,320,1145,320C1132.3,320,1120,320,1108,320C1095.4,320,1083,320,1071,320C1058.5,320,1046,320,1034,320C1021.5,320,1009,320,997,320C984.6,320,972,320,960,320C947.7,320,935,320,923,320C910.8,320,898,320,886,320C873.8,320,862,320,849,320C836.9,320,825,320,812,320C800,320,788,320,775,320C763.1,320,751,320,738,320C726.2,320,714,320,702,320C689.2,320,677,320,665,320C652.3,320,640,320,628,320C615.4,320,603,320,591,320C578.5,320,566,320,554,320C541.5,320,529,320,517,320C504.6,320,492,320,480,320C467.7,320,455,320,443,320C430.8,320,418,320,406,320C393.8,320,382,320,369,320C356.9,320,345,320,332,320C320,320,308,320,295,320C283.1,320,271,320,258,320C246.2,320,234,320,222,320C209.2,320,197,320,185,320C172.3,320,160,320,148,320C135.4,320,123,320,111,320C98.5,320,86,320,74,320C61.5,320,49,320,37,320C24.6,320,12,320,6,320L0,320Z"></path></svg>