<?xml version="1.0" standalone="no"?><svg xmlns="http://www.w3.org/2000/svg" viewBox="0 0 1440 320"><path fill="#f3f4f5" fill-opacity="1" d="M0,96L6.2,112C12.3,128,25,160,37,149.3C49.2,139,62,85,74,85.3C86.2,85,98,139,111,176C123.1,213,135,235,148,245.3C160,256,172,256,185,224C196.9,192,209,128,222,128C233.8,128,246,192,258,197.3C270.8,203,283,149,295,144C307.7,139,320,181,332,218.7C344.6,256,357,288,369,282.7C381.5,277,394,235,406,186.7C418.5,139,431,85,443,64C455.4,43,468,53,480,53.3C492.3,53,505,43,517,74.7C529.2,107,542,181,554,202.7C566.2,224,578,192,591,154.7C603.1,117,615,75,628,53.3C640,32,652,32,665,53.3C676.9,75,689,117,702,133.3C713.8,149,726,139,738,160C750.8,181,763,235,775,245.3C787.7,256,800,224,812,192C824.6,160,837,128,849,122.7C861.5,117,874,139,886,133.3C898.5,128,911,96,923,74.7C935.4,53,948,43,960,58.7C972.3,75,985,117,997,160C1009.2,203,1022,245,1034,266.7C1046.2,288,1058,288,1071,240C1083.1,192,1095,96,1108,48C1120,0,1132,0,1145,32C1156.9,64,1169,128,1182,170.7C1193.8,213,1206,235,1218,229.3C1230.8,224,1243,192,1255,181.3C1267.7,171,1280,181,1292,176C1304.6,171,1317,149,1329,133.3C1341.5,117,1354,107,1366,85.3C1378.5,64,1391,32,1403,32C1415.4,32,1428,64,1434,80L1440,96L1440,0L1433.8,0C1427.7,0,1415,0,1403,0C1390.8,0,1378,0,1366,0C1353.8,0,1342,0,1329,0C1316.9,0,1305,0,1292,0C1280,0,1268,0,1255,0C1243.1,0,1231,0,1218,0C1206.2,0,1194,0,1182,0C1169.2,0,1157,0,1145,0C1132.3,0,1120,0,1108,0C1095.4,0,1083,0,1071,0C1058.5,0,1046,0,1034,0C1021.5,0,1009,0,997,0C984.6,0,972,0,960,0C947.7,0,935,0,923,0C910.8,0,898,0,886,0C873.8,0,862,0,849,0C836.9,0,825,0,812,0C800,0,788,0,775,0C763.1,0,751,0,738,0C726.2,0,714,0,702,0C689.2,0,677,0,665,0C652.3,0,640,0,628,0C615.4,0,603,0,591,0C578.5,0,566,0,554,0C541.5,0,529,0,517,0C504.6,0,492,0,480,0C467.7,0,455,0,443,0C430.8,0,418,0,406,0C393.8,0,382,0,369,0C356.9,0,345,0,332,0C320,0,308,0,295,0C283.1,0,271,0,258,0C246.2,0,234,0,222,0C209.2,0,197,0,185,0C172.3,0,160,0,148,0C135.4,0,123,0,111,0C98.5,0,86,0,74,0C61.5,0,49,0,37,0C24.6,0,12,0,6,0L0,0Z"></path></svg>